<svg width="132" height="132" viewBox="0 0 132 132" fill="none" xmlns="http://www.w3.org/2000/svg">
<path d="M66 8.25C54.5782 8.25 43.4128 11.637 33.9158 17.9826C24.4189 24.3283 17.0169 33.3476 12.646 43.9C8.27502 54.4525 7.13138 66.0641 9.35968 77.2665C11.588 88.4689 17.0881 98.7589 25.1646 106.835C33.2411 114.912 43.5312 120.412 54.7336 122.64C65.936 124.869 77.5476 123.725 88.1 119.354C98.6524 114.983 107.672 107.581 114.017 98.0842C120.363 88.5872 123.75 77.4219 123.75 66C123.75 50.6838 117.666 35.9948 106.835 25.1646C96.0052 14.3344 81.3163 8.25 66 8.25ZM57.75 89.0621L37.125 68.4371L43.6863 61.875L57.75 75.938L88.3163 45.375L94.8985 51.9168L57.75 89.0621Z" fill="#1E4BD2"/>
</svg>
