<svg width="127" height="28" viewBox="0 0 127 28" fill="none" xmlns="http://www.w3.org/2000/svg">
<path d="M31.4463 5.72256H34.2822V19.0917H41.0567V21.6575H31.4463V5.72256Z" fill="#262C39"/>
<path d="M41.7894 10.8541H44.4903V21.6575H41.7894V10.8541ZM41.4068 7.18551C41.4068 6.75037 41.5644 6.37526 41.8795 6.06016C42.2096 5.73006 42.6222 5.56501 43.1174 5.56501C43.6125 5.56501 44.0251 5.72256 44.3552 6.03765C44.7003 6.33775 44.8729 6.72036 44.8729 7.18551C44.8729 7.65065 44.7003 8.04077 44.3552 8.35587C44.0251 8.65596 43.6125 8.80601 43.1174 8.80601C42.6222 8.80601 42.2096 8.64846 41.8795 8.33336C41.5644 8.00326 41.4068 7.62064 41.4068 7.18551Z" fill="#262C39"/>
<path d="M46.4656 10.8541H49.0314V12.5872H49.0764C49.3315 12.047 49.7216 11.5819 50.2468 11.1917C50.7719 10.7866 51.4847 10.5841 52.3849 10.5841C53.1052 10.5841 53.7129 10.7041 54.208 10.9442C54.7182 11.1842 55.1308 11.4993 55.4459 11.8895C55.761 12.2796 55.9861 12.7297 56.1211 13.2399C56.2561 13.75 56.3237 14.2827 56.3237 14.8379V21.6575H53.6228V16.1883C53.6228 15.8882 53.6078 15.5581 53.5778 15.198C53.5478 14.8229 53.4653 14.4778 53.3302 14.1627C53.2102 13.8326 53.0151 13.5625 52.7451 13.3524C52.475 13.1273 52.1074 13.0148 51.6422 13.0148C51.1921 13.0148 50.8095 13.0898 50.4944 13.2399C50.1943 13.3899 49.9392 13.5925 49.7291 13.8476C49.5341 14.1026 49.3915 14.3952 49.3015 14.7253C49.2115 15.0554 49.1665 15.4005 49.1665 15.7606V21.6575H46.4656V10.8541Z" fill="#262C39"/>
<path d="M69.3826 10.8541V20.6897C69.3826 21.665 69.2626 22.5427 69.0225 23.323C68.7824 24.1182 68.4073 24.7859 67.8971 25.3261C67.402 25.8813 66.7718 26.3089 66.0066 26.609C65.2413 26.9091 64.3335 27.0591 63.2832 27.0591C62.2779 27.0591 61.3251 26.9316 60.4248 26.6765C59.5246 26.4214 58.6918 25.9563 57.9266 25.2811L59.5471 23.0754C60.0872 23.5706 60.6499 23.9532 61.2351 24.2233C61.8203 24.4933 62.4955 24.6284 63.2607 24.6284C63.9059 24.6284 64.4461 24.5384 64.8812 24.3583C65.3314 24.1782 65.684 23.9307 65.939 23.6156C66.2091 23.3005 66.3967 22.9179 66.5017 22.4677C66.6218 22.0326 66.6818 21.5449 66.6818 21.0048V20.217H66.6368C66.2466 20.7422 65.729 21.1398 65.0838 21.4099C64.4386 21.665 63.7784 21.7925 63.1032 21.7925C62.2929 21.7925 61.5577 21.65 60.8975 21.3649C60.2373 21.0648 59.6671 20.6672 59.187 20.172C58.7218 19.6769 58.3617 19.0917 58.1066 18.4165C57.8515 17.7413 57.724 17.021 57.724 16.2558C57.724 15.4606 57.844 14.7178 58.0841 14.0276C58.3242 13.3374 58.6768 12.7372 59.1419 12.2271C59.6071 11.7169 60.1623 11.3193 60.8075 11.0342C61.4677 10.7341 62.2179 10.5841 63.0582 10.5841C63.8234 10.5841 64.5361 10.7341 65.1963 11.0342C65.8565 11.3343 66.3817 11.8144 66.7718 12.4746H66.8168V10.8541H69.3826ZM63.6208 13.0148C63.1407 13.0148 62.7055 13.0973 62.3154 13.2624C61.9253 13.4124 61.5877 13.63 61.3026 13.9151C61.0325 14.1852 60.815 14.5228 60.6499 14.9279C60.4999 15.318 60.4248 15.7531 60.4248 16.2333C60.4248 16.6684 60.4999 17.0736 60.6499 17.4487C60.815 17.8238 61.04 18.1539 61.3251 18.439C61.6102 18.7241 61.9478 18.9491 62.3379 19.1142C62.7281 19.2792 63.1482 19.3618 63.5983 19.3618C64.0935 19.3618 64.5361 19.2792 64.9262 19.1142C65.3314 18.9491 65.669 18.7316 65.939 18.4615C66.2241 18.1764 66.4417 17.8388 66.5917 17.4487C66.7418 17.0585 66.8168 16.6384 66.8168 16.1883C66.8168 15.243 66.5317 14.4778 65.9615 13.8926C65.3914 13.3074 64.6111 13.0148 63.6208 13.0148Z" fill="#262C39"/>
<path d="M69.8526 10.8541H72.801L75.6819 18.4165H75.7269L78.6303 10.8541H81.3987L77.1449 21.6575H74.264L69.8526 10.8541Z" fill="#262C39"/>
<path d="M88.6134 20.172H88.5459C88.1557 20.7872 87.6606 21.2373 87.0604 21.5224C86.4602 21.7925 85.8 21.9275 85.0798 21.9275C84.5846 21.9275 84.097 21.86 83.6168 21.725C83.1517 21.5899 82.7316 21.3874 82.3564 21.1173C81.9963 20.8472 81.7037 20.5096 81.4787 20.1045C81.2536 19.6994 81.1411 19.2267 81.1411 18.6866C81.1411 18.1014 81.2461 17.6062 81.4562 17.2011C81.6662 16.781 81.9438 16.4359 82.2889 16.1658C82.649 15.8807 83.0617 15.6556 83.5268 15.4906C83.992 15.3255 84.4721 15.2055 84.9672 15.1305C85.4774 15.0404 85.9876 14.9879 86.4977 14.9729C87.0079 14.9429 87.488 14.9279 87.9382 14.9279H88.6134V14.6353C88.6134 13.9601 88.3808 13.4574 87.9157 13.1273C87.4505 12.7822 86.8578 12.6097 86.1376 12.6097C85.5674 12.6097 85.0348 12.7147 84.5396 12.9248C84.0445 13.1198 83.6168 13.3899 83.2567 13.735L81.8388 12.3171C82.439 11.7019 83.1367 11.2593 83.9319 10.9892C84.7422 10.7191 85.5749 10.5841 86.4302 10.5841C87.1954 10.5841 87.8406 10.6741 88.3658 10.8541C88.891 11.0192 89.3261 11.2368 89.6712 11.5068C90.0163 11.7769 90.2789 12.092 90.4589 12.4521C90.654 12.7972 90.789 13.1498 90.8641 13.51C90.9541 13.8701 91.0066 14.2227 91.0216 14.5678C91.0366 14.8979 91.0441 15.1905 91.0441 15.4456V21.6575H88.6134V20.172ZM88.4558 16.8185H87.8932C87.518 16.8185 87.0979 16.8335 86.6328 16.8635C86.1676 16.8935 85.725 16.9685 85.3049 17.0886C84.8997 17.1936 84.5546 17.3586 84.2695 17.5837C83.9844 17.7938 83.8419 18.0939 83.8419 18.484C83.8419 18.7391 83.8944 18.9566 83.9995 19.1367C84.1195 19.3017 84.2695 19.4443 84.4496 19.5643C84.6296 19.6844 84.8322 19.7744 85.0573 19.8344C85.2824 19.8794 85.5074 19.9019 85.7325 19.9019C86.6628 19.9019 87.3455 19.6844 87.7806 19.2492C88.2308 18.7991 88.4558 18.1914 88.4558 17.4262V16.8185Z" fill="#262C39"/>
<path d="M92.8246 10.8541H95.3904V12.5872H95.4354C95.6905 12.047 96.0806 11.5819 96.6058 11.1917C97.131 10.7866 97.8437 10.5841 98.744 10.5841C99.4642 10.5841 100.072 10.7041 100.567 10.9442C101.077 11.1842 101.49 11.4993 101.805 11.8895C102.12 12.2796 102.345 12.7297 102.48 13.2399C102.615 13.75 102.683 14.2827 102.683 14.8379V21.6575H99.9818V16.1883C99.9818 15.8882 99.9668 15.5581 99.9368 15.198C99.9068 14.8229 99.8243 14.4778 99.6892 14.1627C99.5692 13.8326 99.3742 13.5625 99.1041 13.3524C98.834 13.1273 98.4664 13.0148 98.0012 13.0148C97.5511 13.0148 97.1685 13.0898 96.8534 13.2399C96.5533 13.3899 96.2982 13.5925 96.0881 13.8476C95.8931 14.1026 95.7505 14.3952 95.6605 14.7253C95.5705 15.0554 95.5255 15.4005 95.5255 15.7606V21.6575H92.8246V10.8541Z" fill="#262C39"/>
<path d="M106.784 17.2011C106.874 18.0113 107.189 18.6415 107.729 19.0917C108.269 19.5418 108.922 19.7669 109.687 19.7669C110.362 19.7669 110.925 19.6318 111.375 19.3618C111.84 19.0767 112.246 18.7241 112.591 18.3039L114.526 19.7669C113.896 20.5471 113.191 21.1023 112.411 21.4324C111.63 21.7625 110.813 21.9275 109.957 21.9275C109.147 21.9275 108.382 21.7925 107.662 21.5224C106.941 21.2523 106.319 20.8697 105.794 20.3746C105.268 19.8794 104.848 19.2867 104.533 18.5965C104.233 17.8913 104.083 17.1111 104.083 16.2558C104.083 15.4005 104.233 14.6278 104.533 13.9376C104.848 13.2324 105.268 12.6322 105.794 12.137C106.319 11.6419 106.941 11.2593 107.662 10.9892C108.382 10.7191 109.147 10.5841 109.957 10.5841C110.708 10.5841 111.39 10.7191 112.005 10.9892C112.636 11.2443 113.168 11.6194 113.603 12.1145C114.054 12.6097 114.399 13.2249 114.639 13.9601C114.894 14.6803 115.021 15.5131 115.021 16.4584V17.2011H106.784ZM112.321 15.1755C112.306 14.3802 112.058 13.7575 111.578 13.3074C111.098 12.8422 110.43 12.6097 109.575 12.6097C108.764 12.6097 108.119 12.8422 107.639 13.3074C107.174 13.7725 106.889 14.3952 106.784 15.1755H112.321Z" fill="#262C39"/>
<path d="M119.213 15.8507L115.476 10.8541H118.762L120.923 14.0951L123.264 10.8541H126.347L122.656 15.8507L127 21.6575H123.714L120.901 17.7863L118.065 21.6575H114.869L119.213 15.8507Z" fill="#262C39"/>
<path d="M0 12.7058C0 6.20822 5.26737 0.940857 11.765 0.940857C18.2626 0.940857 23.53 6.20822 23.53 12.7058V24.4708H11.765C5.26737 24.4708 0 19.2035 0 12.7058Z" fill="url(#paint0_linear_194_90)"/>
<defs>
<linearGradient id="paint0_linear_194_90" x1="-6.06075" y1="33.2054" x2="28.5212" y2="-4.40687" gradientUnits="userSpaceOnUse">
<stop stop-color="#3A5FF7"/>
</linearGradient>
</defs>
</svg>
